# xmcd
#
# Track frame offsets: 
#        150
#        14789
#        31509
#        42895
#        61765
#        75330
#        91692
#        104623
#        117742
#        139215
#        152511
#        165118
#
# Disc length: 2373 seconds
#
# Revision: 0
# Processed by: cddbd v1.5.2PL0 Copyright (c) Steve Scherf et al.
# Submitted via: ExactAudioCopy v1.0b4
#
DISCID=8609430c
DTITLE=Dave Peabody - Dream Of Mississippi (LP)
DYEAR=1991
DGENRE=Blues
TTITLE0=Dream Of Mississippi
TTITLE1=Rambling On My Mind
TTITLE2=Jumper Hanging On The Line
TTITLE3=Delta Blues
TTITLE4=Street Walkin'
TTITLE5=Wind Howling Blues
TTITLE6=Please Throw This Poor Dog A Bone
TTITLE7=Mary, Ain' t I Been One Good Man To You
TTITLE8=Mississippi Blues
TTITLE9=Mortgage Blues
TTITLE10=Take A Walk Around The Corner
TTITLE11=I' m Going Home
EXTD=
EXTT0=
EXTT1=
EXTT2=
EXTT3=
EXTT4=
EXTT5=
EXTT6=
EXTT7=
EXTT8=
EXTT9=
EXTT10=
EXTT11=
PLAYORDER=
